<svg xmlns="http://www.w3.org/2000/svg" xmlns:xlink="http://www.w3.org/1999/xlink" viewBox="-2508 1014 367 382">
  <defs>
    <style>
      .cls-1 {
        clip-path: url(#clip-book);
      }

      .cls-2 {
        fill: #5790ea;
      }

      .cls-3, .cls-4 {
        fill: #95989a;
      }

      .cls-4 {
        stroke: #95989a;
        stroke-width: 1px;
      }

      .cls-5 {
        fill: #fff;
      }
    </style>
    <clipPath id="clip-book">
      <rect x="-2508" y="1014" width="367" height="382"/>
    </clipPath>
  </defs>
  <g id="book" class="cls-1">
    <rect class="cls-5" x="-2508" y="1014" width="367" height="382"/>
    <g id="viral-marketing" transform="translate(-2440.999 1103.001)">
      <path id="path" class="cls-2" d="M7.813,106.452H32.476l8.854,17.709a3.638,3.638,0,0,0,6.508,0l8.855-17.709H58.5a3.638,3.638,0,1,0,0-7.277H54.444a3.637,3.637,0,0,0-3.254,2.011L44.584,114.4l-6.606-13.212a3.639,3.639,0,0,0-3.254-2.011H7.813a.536.536,0,0,1-.536-.536V7.813a.537.537,0,0,1,.536-.536H81.356a.537.537,0,0,1,.537.536V47.254a3.638,3.638,0,0,0,7.277,0V7.813A7.822,7.822,0,0,0,81.356,0H7.813A7.822,7.822,0,0,0,0,7.813V98.64A7.821,7.821,0,0,0,7.813,106.452Z"/>
      <path id="path-2" data-name="path" class="cls-3" d="M72.59,30a18.2,18.2,0,1,0,18.2,18.2A18.22,18.22,0,0,0,72.59,30Zm0,29.124A10.924,10.924,0,1,1,83.514,48.2,10.936,10.936,0,0,1,72.59,59.124Z" transform="translate(-28.005 -15.447)"/>
      <path id="path-3" data-name="path" class="cls-3" d="M60.032,127.312a22.7,22.7,0,0,1,12.052,3.449,3.638,3.638,0,0,0,3.86-6.168A30.037,30.037,0,0,0,30,150.067a3.638,3.638,0,0,0,3.638,3.638H73.946a3.638,3.638,0,0,0,0-7.277H37.567a22.792,22.792,0,0,1,22.465-19.116Z" transform="translate(-15.447 -61.806)"/>
      <path id="path-4" data-name="path" class="cls-2" d="M367.542,0H294a7.822,7.822,0,0,0-7.813,7.813V47.254a3.638,3.638,0,1,0,7.276,0V7.813A.537.537,0,0,1,294,7.277h73.543a.536.536,0,0,1,.536.536V98.64a.536.536,0,0,1-.536.536H340.629a3.638,3.638,0,0,0-3.254,2.011L330.769,114.4l-6.606-13.212a3.638,3.638,0,0,0-3.254-2.011h-4.054a3.638,3.638,0,1,0,0,7.277h1.807l8.855,17.709a3.638,3.638,0,0,0,6.508,0l8.855-17.709h24.664a7.821,7.821,0,0,0,7.812-7.812V7.813A7.821,7.821,0,0,0,367.542,0Z" transform="translate(-147.356)"/>
      <path id="path-5" data-name="path" class="cls-4" d="M358.774,30a18.2,18.2,0,1,0,18.2,18.2,18.221,18.221,0,0,0-18.2-18.2Zm0,29.124A10.924,10.924,0,1,1,369.7,48.2,10.936,10.936,0,0,1,358.774,59.124Z" transform="translate(-175.361 -15.447)"/>
      <path id="path-6" data-name="path" class="cls-3" d="M341.836,150.067a3.638,3.638,0,0,0,3.638,3.638h40.308a3.638,3.638,0,0,0,3.638-3.638,30.036,30.036,0,0,0-45.943-25.473,3.638,3.638,0,1,0,3.86,6.168,22.764,22.764,0,0,1,34.517,15.667H345.475A3.638,3.638,0,0,0,341.836,150.067Z" transform="translate(-175.976 -61.806)"/>
      <path id="path-7" data-name="path" class="cls-2" d="M143.092,127.718v90.827a7.821,7.821,0,0,0,7.813,7.812h24.664l8.854,17.709a3.638,3.638,0,0,0,6.508,0l8.855-17.709h24.663a7.821,7.821,0,0,0,7.813-7.812V127.718a7.821,7.821,0,0,0-7.813-7.812H150.9A7.821,7.821,0,0,0,143.092,127.718Zm81.892,0v90.827a.536.536,0,0,1-.536.536H197.537a3.637,3.637,0,0,0-3.254,2.011L187.677,234.3l-6.606-13.212a3.639,3.639,0,0,0-3.254-2.011H150.905a.536.536,0,0,1-.536-.536V127.718a.536.536,0,0,1,.536-.536h73.543a.536.536,0,0,1,.536.536Z" transform="translate(-73.678 -61.739)"/>
      <path id="path-8" data-name="path" class="cls-3" d="M215.682,186.3a18.2,18.2,0,1,0-18.2-18.2A18.221,18.221,0,0,0,215.682,186.3Zm0-29.124A10.924,10.924,0,1,1,204.759,168.1,10.936,10.936,0,0,1,215.682,157.181Z" transform="translate(-101.683 -77.185)"/>
      <path id="path-9" data-name="path" class="cls-3" d="M176.73,273.611h52.786a3.638,3.638,0,0,0,3.638-3.638,30.031,30.031,0,0,0-60.063,0,3.638,3.638,0,0,0,3.638,3.638Zm26.393-26.393a22.793,22.793,0,0,1,22.465,19.116H180.66A22.791,22.791,0,0,1,203.124,247.218Z" transform="translate(-89.125 -123.546)"/>
      <path id="path-10" data-name="path" class="cls-2" d="M377.381,432.262a3.881,3.881,0,1,0-3.881-3.881A3.885,3.885,0,0,0,377.381,432.262Z" transform="translate(-192.315 -218.575)"/>
      <path id="path-11" data-name="path" class="cls-2" d="M336.381,432.262a3.881,3.881,0,1,0-3.881-3.881A3.885,3.885,0,0,0,336.381,432.262Z" transform="translate(-171.204 -218.575)"/>
      <path id="path-12" data-name="path" class="cls-2" d="M418.381,432.262a3.881,3.881,0,1,0-3.881-3.881A3.885,3.885,0,0,0,418.381,432.262Z" transform="translate(-213.426 -218.575)"/>
      <path id="path-13" data-name="path" class="cls-3" d="M224.359,395H3.638A3.638,3.638,0,0,0,0,398.638v29.106a3.638,3.638,0,0,0,3.638,3.638H224.359A3.638,3.638,0,0,0,228,427.744V398.638A3.638,3.638,0,0,0,224.359,395ZM7.277,402.277H141.892v21.83H7.277Zm213.445,21.83H149.169v-21.83h71.552Z" transform="translate(0 -203.385)"/>
    </g>
  </g>
</svg>
