<?xml version="1.0" encoding="UTF-8"?>
<!DOCTYPE svg PUBLIC "-//W3C//DTD SVG 1.1//EN" "http://www.w3.org/Graphics/SVG/1.1/DTD/svg11.dtd">
<svg version="1.1" xmlns="http://www.w3.org/2000/svg" xmlns:xlink="http://www.w3.org/1999/xlink" width="283" height="283"  xml:space="preserve" id="dogwalking">
    <!-- Generated by PaintCode (www.paintcodeapp.com) -->
    <path id="dogwalking-path" stroke="none" fill="rgb(255, 255, 255)" d="M 253.49,75.12 C 253.49,64.54 247.37,54.72 236.25,47.46 225.65,40.53 211.62,36.72 196.77,36.72 181.91,36.72 167.89,40.53 157.29,47.46 146.17,54.72 140.05,64.54 140.05,75.12 L 140.05,103.48 C 140.05,114.06 146.17,123.88 157.29,131.14 166.96,137.45 179.48,141.17 192.87,141.78 L 192.87,168.6 192.87,168.56 C 192.87,186.34 178.46,200.75 160.69,200.75 143.13,200.75 128.81,186.09 128.81,168.07 L 128.81,105.64 128.81,105.64 C 128.81,83.59 110.93,65.71 88.88,65.71 66.83,65.71 48.95,83.59 48.95,105.64 L 48.95,188.46 C 44.97,193.77 30.35,213.95 30.35,224.28 L 30.35,224.43 C 30.35,236.87 40.43,246.96 52.87,246.96 65.31,246.96 75.39,236.87 75.39,224.43 75.39,224.3 75.39,224.17 75.39,224.04 75.39,213.95 60.77,193.77 56.79,188.46 L 56.79,105.64 56.79,105.64 C 56.79,87.92 71.16,73.56 88.88,73.56 106.6,73.56 120.97,87.92 120.97,105.64 L 120.97,168.06 C 120.97,190.41 138.8,208.58 160.72,208.58 L 160.68,208.58 C 182.79,208.58 200.71,190.66 200.71,168.55 L 200.71,141.77 C 214.09,141.16 226.59,137.45 236.25,131.14 247.37,123.88 253.49,114.06 253.49,103.48 L 253.49,75.12 253.49,75.12 Z M 52.87,238.96 L 52.89,238.96 C 44.77,238.96 38.19,232.38 38.19,224.26 38.19,218.69 46.24,205.63 52.87,196.37 59.5,205.62 67.55,218.69 67.55,224.28 L 67.55,224.26 C 67.55,232.38 60.97,238.96 52.85,238.96 L 52.87,238.96 Z M 161.57,54.02 C 170.91,47.92 183.41,44.56 196.76,44.56 210.12,44.56 222.62,47.92 231.96,54.02 240.79,59.78 245.65,67.27 245.65,75.11 L 245.65,75.06 C 245.65,77.57 245.16,80.06 244.22,82.39 233.89,71.73 216.02,65.08 196.76,65.08 177.51,65.08 159.65,71.73 149.3,82.37 L 149.31,82.39 C 148.37,80.06 147.88,77.57 147.88,75.06 147.88,67.27 152.75,59.78 161.57,54.02 L 161.57,54.02 Z M 239.96,89.31 L 239.98,89.29 C 237.71,91.9 235.08,94.19 232.18,96.07 222.62,102.31 210.12,105.67 196.76,105.67 183.41,105.67 170.91,102.31 161.57,96.21 L 161.35,96.07 C 158.45,94.18 155.83,91.91 153.56,89.3 162.06,79.28 178.62,72.92 196.77,72.92 214.91,72.92 231.47,79.28 239.96,89.31 L 239.96,89.31 Z M 245.65,103.48 C 245.65,111.32 240.79,118.81 231.96,124.57 222.62,130.67 210.12,134.03 196.76,134.03 183.41,134.03 170.91,130.67 161.57,124.57 152.74,118.81 147.88,111.32 147.88,103.48 L 147.88,94.73 148.08,94.96 C 150.91,98.1 154.17,100.83 157.75,103.07 167.88,109.7 181.91,113.51 196.76,113.51 211.62,113.51 225.65,109.7 236.25,102.77 L 236.44,102.65 C 239.99,100.34 243.2,97.56 245.97,94.37 L 245.65,103.48 Z M 245.65,103.48" />
    <circle id="dogwalking-ellipse" stroke="none" fill="rgb(255, 255, 255)" cx="164.93" cy="115.92" r="4.26" />
    <circle id="dogwalking-ellipse2" stroke="none" fill="rgb(255, 255, 255)" cx="195.83" cy="124.53" r="4.26" />
    <circle id="dogwalking-ellipse3" stroke="none" fill="rgb(255, 255, 255)" cx="226.89" cy="116.53" r="4.26" />
    <circle id="dogwalking-ellipse4" stroke="none" fill="rgb(255, 255, 255)" cx="226.89" cy="62.88" r="4.26" />
    <circle id="dogwalking-ellipse5" stroke="none" fill="rgb(255, 255, 255)" cx="195.99" cy="54.27" r="4.26" />
    <circle id="dogwalking-ellipse6" stroke="none" fill="rgb(255, 255, 255)" cx="164.8" cy="62.4" r="4.25" />
</svg>
