<?xml version="1.0" encoding="UTF-8"?>
<!DOCTYPE svg PUBLIC "-//W3C//DTD SVG 1.1//EN" "http://www.w3.org/Graphics/SVG/1.1/DTD/svg11.dtd">
<svg version="1.1" xmlns="http://www.w3.org/2000/svg" xmlns:xlink="http://www.w3.org/1999/xlink" width="283" height="283"  xml:space="preserve" id="dropin">
    <!-- Generated by PaintCode (www.paintcodeapp.com) -->
    <rect id="dropin-rectangle3" stroke="none" fill="rgb(255, 255, 255)" x="114.03" y="110.33" width="57.83" height="6.57" />
    <path id="dropin-path" stroke="none" fill="rgb(255, 255, 255)" d="M 55,248.77 L 228.05,248.77 194.05,187.44 160.99,187.44 C 176.09,160.4 196.64,120.23 196.64,101.7 L 196.64,101.81 C 196.64,74.05 175.67,50.76 148.06,47.86 L 148.2,33.23 114.02,33.23 114.02,55.68 113.73,55.86 C 97.69,65.89 88.07,83.59 88.4,102.51 88.39,120.23 108.94,160.4 124.05,187.44 L 89,187.44 55,248.77 Z M 148.2,76.6 L 165.29,76.6 165.29,97.19 148.2,97.19 148.2,76.6 Z M 120.6,59.5 C 120.7,59.44 120.81,59.39 120.91,59.33 L 120.6,58.73 120.6,39.8 141.63,39.8 141.63,97.19 120.6,97.19 120.6,59.5 Z M 120.01,166.17 C 103.63,134.94 94.97,112.65 94.97,101.7 L 94.97,101.58 C 94.97,86.72 101.95,72.71 113.82,63.77 L 114.02,97.19 110.95,97.19 110.95,103.76 175.35,103.76 175.35,97.19 171.85,97.19 171.85,70.03 148.2,70.03 148.2,54.49 148.28,54.5 C 172.14,57.43 190.07,77.69 190.07,101.73 190.07,112.65 181.42,134.93 165.05,166.14 156.05,183.28 146.97,198.81 142.52,206.26 138.08,198.82 129.01,183.31 120.01,166.17 L 120.01,166.17 Z M 148.86,208.47 L 179.99,208.47 190.11,228.18 92.94,228.18 103.06,208.47 136.18,208.47 C 138.14,211.77 139.42,213.86 139.72,214.35 L 142.52,218.91 145.32,214.35 C 145.62,213.86 146.9,211.77 148.86,208.47 L 148.86,208.47 Z M 127.61,194.01 L 127.61,193.75 C 129.3,196.72 130.88,199.45 132.31,201.9 L 99.04,201.9 82.18,234.75 200.87,234.75 184,201.9 152.73,201.9 C 154.12,199.52 155.65,196.88 157.28,194.01 L 190.18,194.01 216.89,242.2 66.16,242.2 92.87,194.01 127.61,194.01 Z M 127.61,194.01" />
    <rect id="dropin-rectangle5" stroke="none" fill="rgb(255, 255, 255)" x="134.62" y="123.91" width="17.09" height="6.57" />
    <rect id="dropin-rectangle7" stroke="none" fill="rgb(255, 255, 255)" x="124.1" y="144.5" width="37.68" height="6.57" />
    <rect id="dropin-rectangle9" stroke="none" fill="rgb(255, 255, 255)" x="134.62" y="164.22" width="17.09" height="6.57" />
</svg>
