<?xml version="1.0" encoding="UTF-8"?>
<!DOCTYPE svg PUBLIC "-//W3C//DTD SVG 1.1//EN" "http://www.w3.org/Graphics/SVG/1.1/DTD/svg11.dtd">
<svg version="1.1" xmlns="http://www.w3.org/2000/svg" xmlns:xlink="http://www.w3.org/1999/xlink" width="283" height="283"  xml:space="preserve" id="housesitting">
    <!-- Generated by PaintCode (www.paintcodeapp.com) -->
    <path id="housesitting-path" stroke="none" fill="rgb(255, 255, 255)" d="M 157.99,238.97 L 157.99,228.8 157.99,228.8 157.95,228.8 C 164.06,227.84 168.23,222.09 167.27,215.98 166.78,212.91 165.04,210.18 162.46,208.44 L 162.3,208.49 C 168.78,202.45 169.14,192.3 163.09,185.82 160.85,183.42 157.92,181.76 154.7,181.07 L 154.5,166.15 154.5,166.17 C 154.5,158.18 148.03,151.7 140.04,151.7 L 65.93,151.7 65.94,151.7 C 57.95,151.7 51.48,158.18 51.48,166.17 L 51.48,181.03 51.56,181.01 C 42.86,182.7 37.18,191.12 38.87,199.82 39.5,203.05 41.11,206.01 43.47,208.3 L 43.52,208.43 C 38.38,211.9 37.03,218.86 40.49,224 42.27,226.63 45.08,228.39 48.23,228.83 L 48.18,238.97 38.51,238.97 38.51,245.28 244.65,245.28 244.65,238.97 157.99,238.97 Z M 151.36,187.03 L 151.36,187.03 C 156.74,187.03 161.1,191.39 161.1,196.77 161.1,202.15 156.74,206.51 151.36,206.51 145.98,206.51 141.62,202.15 141.62,196.77 L 141.62,196.78 C 141.62,191.4 145.98,187.03 151.37,187.03 L 151.36,187.03 Z M 57.79,166.15 L 57.79,166.16 C 57.79,161.66 61.44,158.01 65.94,158.01 L 140.06,158.01 140.05,158.01 C 144.55,158.01 148.2,161.66 148.2,166.16 L 148.2,181.03 148.28,181.01 C 139.59,182.7 133.91,191.12 135.6,199.82 136.06,202.21 137.07,204.46 138.53,206.41 L 67.38,206.51 67.45,206.41 C 72.78,199.34 71.37,189.28 64.3,183.95 62.35,182.48 60.1,181.48 57.7,181.01 L 57.79,166.15 Z M 54.63,187.03 L 54.63,187.03 C 60.01,187.03 64.37,191.39 64.37,196.77 64.37,202.15 60.01,206.51 54.63,206.51 49.25,206.51 44.89,202.15 44.89,196.77 L 44.89,196.78 C 44.89,191.4 49.26,187.03 54.64,187.03 L 54.63,187.03 Z M 151.68,238.97 L 54.5,238.97 54.5,228.94 151.68,228.94 151.68,238.97 Z M 49.8,222.63 L 49.8,222.63 C 47.09,222.63 44.89,220.44 44.89,217.73 44.89,215.02 47.09,212.82 49.8,212.82 L 156.2,212.82 156.2,212.82 C 158.9,212.82 161.1,215.02 161.1,217.73 161.1,220.44 158.9,222.63 156.2,222.63 L 49.8,222.63 Z M 49.8,222.63" />
    <rect id="housesitting-rectangle3" stroke="none" fill="rgb(255, 255, 255)" x="73.85" y="174.18" width="6.31" height="6.31" />
    <rect id="housesitting-rectangle5" stroke="none" fill="rgb(255, 255, 255)" x="125.59" y="174.18" width="6.31" height="6.31" />
    <rect id="housesitting-rectangle7" stroke="none" fill="rgb(255, 255, 255)" x="51.55" y="193.53" width="6.31" height="6.31" />
    <rect id="housesitting-rectangle9" stroke="none" fill="rgb(255, 255, 255)" x="147.89" y="193.53" width="6.73" height="6.31" />
    <path id="housesitting-path2" stroke="none" fill="rgb(255, 255, 255)" d="M 241.71,129.04 L 241.71,105.61 206.37,105.61 206.37,129.04 183.23,129.04 183.23,105.19 148.31,105.19 148.31,129.04 135.3,129.04 135.3,145.03 244.79,145.03 244.79,129.04 241.71,129.04 241.71,129.04 Z M 232.03,111.92 L 235.39,111.92 235.39,128.33 232.03,128.33 232.03,111.92 Z M 222.35,111.92 L 225.72,111.92 225.72,128.33 222.35,128.33 222.35,111.92 Z M 212.68,111.92 L 216.04,111.92 216.04,128.33 212.68,128.33 212.68,111.92 Z M 173.98,111.5 L 176.92,111.5 176.92,127.91 173.98,127.91 173.98,111.5 Z M 164.3,111.5 L 167.67,111.5 167.67,127.91 164.3,127.91 164.3,111.5 Z M 154.63,111.5 L 157.99,111.5 157.99,127.91 154.63,127.91 154.63,111.5 Z M 238.48,138.71 L 141.61,138.71 141.61,135.35 238.47,135.35 238.47,138.71 238.48,138.71 Z M 238.48,138.71" />
    <path id="housesitting-path3" stroke="none" fill="rgb(255, 255, 255)" d="M 225.72,183.8 L 225.72,174.18 202.58,174.18 202.58,161.14 167.66,161.14 167.66,190.25 202.55,190.17 202.58,190.17 238.47,190.08 238.47,193.44 170.7,193.44 170.7,199.75 244.78,199.75 244.78,183.76 225.72,183.8 Z M 176.92,183.86 L 173.98,183.86 173.98,167.45 176.92,167.45 176.92,183.86 Z M 187.02,183.86 L 183.23,183.86 183.23,167.45 187.01,167.45 187.02,183.86 Z M 196.27,183.86 L 193.33,183.86 193.33,167.45 196.27,167.45 196.27,183.86 Z M 219.41,183.82 L 202.58,183.86 202.58,180.5 219.41,180.5 219.41,183.82 Z M 219.41,183.82" />
    <rect id="housesitting-rectangle11" stroke="none" fill="rgb(255, 255, 255)" x="183.23" y="61.44" width="6.73" height="6.31" />
    <path id="housesitting-path4" stroke="none" fill="rgb(255, 255, 255)" d="M 232.03,74.32 L 232.03,64.8 209.32,64.8 209.32,51.75 164.32,51.75 164.32,74.32 135.3,74.32 135.3,90.31 244.78,90.31 244.78,74.32 232.03,74.32 Z M 209.32,71.11 L 225.72,71.11 225.72,74.32 209.32,74.32 209.32,71.11 Z M 170.63,67.75 L 180.28,67.75 180.28,61.44 170.63,61.44 170.63,58.07 203.01,58.07 203.01,61.44 193.33,61.44 193.33,67.75 203.01,67.75 203.01,74.32 170.63,74.32 170.63,67.75 Z M 238.47,83.99 L 141.61,83.99 141.61,80.63 238.47,80.63 238.47,83.99 Z M 238.47,83.99" />
    <rect id="housesitting-rectangle13" stroke="none" fill="rgb(255, 255, 255)" x="70.9" y="106.45" width="51.32" height="6.31" />
    <rect id="housesitting-rectangle15" stroke="none" fill="rgb(255, 255, 255)" x="93.2" y="38.72" width="6.31" height="13.04" />
    <path id="housesitting-path5" stroke="none" fill="rgb(255, 255, 255)" d="M 99.51,58.4 L 99.51,54.71 93.2,54.71 93.2,58.45 93.3,58.44 C 82.29,59.99 74.05,69.31 73.85,80.42 L 73.85,103.5 80.16,103.5 80.16,100.14 86.89,100.14 86.89,93.83 80.16,93.83 80.16,80.7 80.16,80.6 C 80.32,71.54 87.79,64.32 96.85,64.48 105.8,64.64 112.97,71.93 112.97,80.89 L 112.97,93.83 106.24,93.83 106.24,100.14 112.97,100.14 112.97,103.51 119.28,103.51 119.28,80.71 119.28,80.82 C 119.28,69.41 110.77,59.78 99.44,58.39 L 99.51,58.4 Z M 99.51,58.4" />
    <rect id="housesitting-rectangle17" stroke="none" fill="rgb(255, 255, 255)" x="90.26" y="93.83" width="13.04" height="6.31" />
    <rect id="housesitting-rectangle19" stroke="none" fill="rgb(255, 255, 255)" x="93.2" y="116.13" width="6.73" height="6.31" />
</svg>
