<svg xmlns="http://www.w3.org/2000/svg" xmlns:xlink="http://www.w3.org/1999/xlink" viewBox="-1996 1014 367 382">
  <defs>
    <style>
      .cls-1 {
        clip-path: url(#clip-pay);
      }

      .cls-2 {
        fill: #95989a;
      }

      .cls-3 {
        fill: #5790ea;
      }

      .cls-4 {
        fill: #fff;
      }
    </style>
    <clipPath id="clip-pay">
      <rect x="-1996" y="1014" width="367" height="382"/>
    </clipPath>
  </defs>
  <g id="pay" class="cls-1">
    <rect class="cls-4" x="-1996" y="1014" width="367" height="382"/>
    <g id="customer" transform="translate(-1914.997 1100.001)">
      <path id="path" class="cls-2" d="M194.691,67.391A33.7,33.7,0,1,0,161,33.7,33.733,33.733,0,0,0,194.691,67.391Zm0-60.561A26.866,26.866,0,1,1,167.826,33.7,26.9,26.9,0,0,1,194.691,6.83Z" transform="translate(-87.693)"/>
      <path id="path-2" data-name="path" class="cls-2" d="M165.259,169.839a51.534,51.534,0,0,1,51.356,48.053H137.694a3.415,3.415,0,1,0,0,6.83h82.448a3.415,3.415,0,0,0,3.415-3.415,58.3,58.3,0,0,0-116.6,0,3.415,3.415,0,0,0,3.415,3.415h13.659a3.415,3.415,0,1,0,0-6.83H113.9A51.535,51.535,0,0,1,165.259,169.839Z" transform="translate(-58.26 -88.789)"/>
      <path id="path-3" data-name="path" class="cls-3" d="M63.929,351.6,45.2,348.459l-8.779-16.844a3.415,3.415,0,0,0-6.057,0l-8.779,16.844L2.849,351.6a3.415,3.415,0,0,0-1.872,5.76l13.307,13.555-2.8,18.788a3.415,3.415,0,0,0,4.9,3.56l17-8.467,17,8.467a3.415,3.415,0,0,0,4.9-3.561l-2.8-18.788L65.8,357.362a3.414,3.414,0,0,0-1.871-5.759Zm-17.5,15.743a3.415,3.415,0,0,0-.941,2.9l2.084,13.989-12.66-6.3a3.414,3.414,0,0,0-3.045,0l-12.66,6.3,2.084-13.989a3.413,3.413,0,0,0-.941-2.9l-9.909-10.092,13.948-2.341a3.416,3.416,0,0,0,2.463-1.79l6.537-12.542,6.536,12.542a3.416,3.416,0,0,0,2.463,1.79l13.948,2.341-9.909,10.093Z" transform="translate(0 -179.625)"/>
      <path id="path-4" data-name="path" class="cls-3" d="M225.6,351.6l-18.733-3.144-8.779-16.844a3.415,3.415,0,0,0-6.057,0l-8.779,16.844L164.516,351.6a3.415,3.415,0,0,0-1.872,5.76l13.307,13.555-2.8,18.788a3.415,3.415,0,0,0,4.9,3.56l17-8.467,17,8.467a3.415,3.415,0,0,0,4.9-3.561l-2.8-18.788,13.307-13.555A3.414,3.414,0,0,0,225.6,351.6Zm-17.5,15.743a3.415,3.415,0,0,0-.941,2.9l2.083,13.989-12.66-6.3a3.416,3.416,0,0,0-3.044,0l-12.66,6.3,2.084-13.989a3.413,3.413,0,0,0-.941-2.9l-9.909-10.092,13.948-2.341a3.416,3.416,0,0,0,2.463-1.79l6.536-12.542,6.536,12.542a3.416,3.416,0,0,0,2.463,1.79L218,357.254,208.1,367.346Z" transform="translate(-88.058 -179.625)"/>
      <path id="path-5" data-name="path" class="cls-3" d="M389.945,353.916a3.415,3.415,0,0,0-2.683-2.312l-18.733-3.144-8.779-16.844a3.415,3.415,0,0,0-6.057,0l-8.779,16.844L326.182,351.6a3.415,3.415,0,0,0-1.872,5.76l13.307,13.555-2.8,18.788a3.415,3.415,0,0,0,4.9,3.56l17-8.467,17,8.467a3.415,3.415,0,0,0,4.9-3.561l-2.8-18.788,13.307-13.555A3.412,3.412,0,0,0,389.945,353.916Zm-20.183,13.431a3.415,3.415,0,0,0-.941,2.9L370.9,384.23l-12.66-6.3a3.416,3.416,0,0,0-3.044,0l-12.66,6.3,2.084-13.989a3.413,3.413,0,0,0-.941-2.9l-9.909-10.092,13.948-2.341a3.416,3.416,0,0,0,2.463-1.79l6.536-12.542,6.536,12.542a3.416,3.416,0,0,0,2.463,1.79l13.948,2.341Z" transform="translate(-176.115 -179.625)"/>
      <path id="path-6" data-name="path" class="cls-2" d="M220.021,94.859A15.482,15.482,0,0,0,231.7,89.522a3.415,3.415,0,0,0-5.154-4.481,8.627,8.627,0,0,1-13.058,0,3.415,3.415,0,0,0-5.154,4.481A15.483,15.483,0,0,0,220.021,94.859Z" transform="translate(-113.023 -45.681)"/>
    </g>
  </g>
</svg>
