<?xml version="1.0" encoding="UTF-8"?>
<!DOCTYPE svg PUBLIC "-//W3C//DTD SVG 1.1//EN" "http://www.w3.org/Graphics/SVG/1.1/DTD/svg11.dtd">
<svg version="1.1" xmlns="http://www.w3.org/2000/svg" xmlns:xlink="http://www.w3.org/1999/xlink" width="283" height="283"  xml:space="preserve" id="petboarding">
    <!-- Generated by PaintCode (www.paintcodeapp.com) -->
    <g id="petboarding-petboardingbg">
    </g>
    <path id="petboarding-path" stroke="none" fill="rgb(255, 255, 255)" d="M 218.57,132.83 L 218.51,132.49 C 213.05,101.51 183.5,80.82 152.52,86.29 136.29,89.15 122.08,98.91 113.59,113.04 L 113.4,113.03 C 98.13,102.73 94.1,81.99 104.4,66.72 106.57,63.49 109.3,60.67 112.45,58.39 L 112.46,58.38 C 114.35,57 115.47,54.8 115.47,52.46 L 115.47,52.47 C 115.47,50.51 114.67,48.63 113.26,47.26 L 113.32,47.32 C 111.97,45.93 110.11,45.15 108.17,45.19 107.19,45.2 106.42,45.21 106.13,45.22 L 106.55,45.2 C 71.38,46.43 43.87,75.94 45.09,111.11 45.11,111.48 45.12,111.85 45.14,112.22 L 45.21,113.33 C 46.08,125.8 50.66,137.72 58.35,147.57 L 58.22,147.77 C 42.63,160.85 40.6,184.09 53.68,199.68 60.68,208.02 71.01,212.84 81.9,212.84 L 212.71,212.84 212.72,212.84 C 234.93,212.84 252.94,194.83 252.94,172.62 252.94,152.57 238.17,135.58 218.32,132.79 L 218.57,132.83 Z M 51.89,112.72 L 51.9,112.85 C 49.7,81.44 73.38,54.21 104.79,52.01 105.45,51.96 106.11,51.93 106.77,51.91 106.67,51.91 107.36,51.9 108.16,51.9 L 108.17,51.9 108.17,51.9 C 108.49,51.9 108.76,52.16 108.76,52.49 L 108.76,52.49 C 108.74,52.7 108.62,52.89 108.45,53.01 L 108.49,52.98 C 90.6,65.97 86.64,91.01 99.63,108.89 102.52,112.86 106.1,116.26 110.22,118.94 L 110.32,119.49 C 109.37,121.63 108.55,123.82 107.86,126.05 L 107.93,125.77 C 96.9,124.81 86.24,130.01 80.21,139.29 L 80.02,139.12 C 74.25,139.42 68.63,141.09 63.63,143.98 L 63.64,143.44 C 56.56,134.38 52.44,123.36 51.84,111.88 L 51.89,112.72 Z M 212.71,206.13 L 81.94,206.13 82.04,206.13 C 65.37,206.13 51.86,192.62 51.86,175.95 51.86,159.49 65.05,146.07 81.51,145.78 L 84.13,145.79 85.1,144.12 85.08,144.14 C 89.29,136.86 97.07,132.37 105.48,132.37 L 105.3,132.37 C 106.83,132.37 108.36,132.51 109.87,132.81 L 112.89,133.38 113.65,130.3 113.67,130.22 C 120.39,103.29 147.65,86.91 174.58,93.62 194.76,98.65 209.75,115.6 212.29,136.25 L 212.53,138.18 C 212.64,139.58 212.71,140.99 212.71,142.43 L 212.71,142.37 C 212.71,170.18 190.16,192.72 162.36,192.72 L 162.41,199.43 162.35,199.43 C 193.86,199.43 219.41,173.88 219.41,142.36 219.41,141.53 219.34,140.67 219.3,139.79 L 219.1,139.75 C 237.27,143.28 249.13,160.86 245.6,179.03 242.54,194.77 228.75,206.13 212.71,206.13 L 212.71,206.13 Z M 212.71,206.13" />
    <rect id="petboarding-rectangle3" stroke="none" fill="rgb(255, 255, 255)" x="135.59" y="45.19" width="6.71" height="6.71" />
    <rect id="petboarding-rectangle5" stroke="none" fill="rgb(255, 255, 255)" x="142.3" y="51.89" width="6.71" height="6.71" />
    <rect id="petboarding-rectangle7" stroke="none" fill="rgb(255, 255, 255)" x="135.59" y="58.6" width="6.71" height="6.71" />
    <rect id="petboarding-rectangle9" stroke="none" fill="rgb(255, 255, 255)" x="128.88" y="51.89" width="6.71" height="6.71" />
    <rect id="petboarding-rectangle11" stroke="none" fill="rgb(255, 255, 255)" x="122.18" y="72.01" width="6.71" height="6.71" />
    <rect id="petboarding-rectangle13" stroke="none" fill="rgb(255, 255, 255)" x="128.88" y="78.72" width="6.71" height="6.71" />
    <rect id="petboarding-rectangle15" stroke="none" fill="rgb(255, 255, 255)" x="122.18" y="85.42" width="6.71" height="6.71" />
    <rect id="petboarding-rectangle17" stroke="none" fill="rgb(255, 255, 255)" x="-1296.53" y="-24.28" width="6.71" height="6.71" />
</svg>
