<svg xmlns="http://www.w3.org/2000/svg" xmlns:xlink="http://www.w3.org/1999/xlink" viewBox="-3058 1041 388 355">
  <defs>
    <style>
      .cls-1 {
        clip-path: url(#clip-search);
      }

      .cls-2 {
        fill: #95989a;
      }

      .cls-3 {
        fill: #5790ea;
      }

      .cls-4 {
        fill: #fff;
      }
    </style>
    <clipPath id="clip-search">
      <rect x="-3058" y="1041" width="388" height="355"/>
    </clipPath>
  </defs>
  <g id="search" class="cls-1">
    <rect class="cls-4" x="-3058" y="1041" width="388" height="355"/>
    <g id="search-1" transform="translate(-2996.531 1096.328)">
      <path id="path" class="cls-2" d="M231.557,0H25.005A3.756,3.756,0,0,0,21.25,3.755V63.843A3.756,3.756,0,0,0,25.005,67.6H231.557a3.756,3.756,0,0,0,3.755-3.755V3.755A3.756,3.756,0,0,0,231.557,0ZM28.761,7.511H167.714V60.088H28.761ZM227.8,60.088H175.225V7.511H227.8Z"/>
      <path id="path-2" data-name="path" class="cls-2" d="M145.005,362.511h65.721a3.755,3.755,0,1,0,0-7.511H145.005a3.755,3.755,0,1,0,0,7.511Z" transform="translate(-59.912 -177.24)"/>
      <path id="path-3" data-name="path" class="cls-2" d="M276.447,315H145.005a3.755,3.755,0,1,0,0,7.511H276.447a3.755,3.755,0,1,0,0-7.511Z" transform="translate(-59.912 -157.27)"/>
      <path id="path-4" data-name="path" class="cls-2" d="M145.005,242.511h65.721a3.755,3.755,0,1,0,0-7.511H145.005a3.755,3.755,0,1,0,0,7.511Z" transform="translate(-59.912 -117.328)"/>
      <path id="path-5" data-name="path" class="cls-2" d="M145.005,202.511H276.447a3.755,3.755,0,1,0,0-7.511H145.005a3.755,3.755,0,1,0,0,7.511Z" transform="translate(-59.912 -97.357)"/>
      <path id="path-6" data-name="path" class="cls-3" d="M231.557,155H25.005a3.756,3.756,0,0,0-3.755,3.755v60.088a3.756,3.756,0,0,0,3.755,3.755H231.557a3.756,3.756,0,0,0,3.755-3.755V158.755A3.756,3.756,0,0,0,231.557,155ZM227.8,215.088H28.761V162.511H227.8Z" transform="translate(0 -77.387)"/>
      <path id="path-7" data-name="path" class="cls-3" d="M348.25,56.188a15.357,15.357,0,0,0,18.714,2.33l7.937,7.937a3.755,3.755,0,0,0,5.311-5.311l-7.937-7.937a15.344,15.344,0,1,0-24.025,2.981ZM353.561,39.8a7.83,7.83,0,1,1,0,11.073A7.78,7.78,0,0,1,353.561,39.8Z" transform="translate(-161.021 -14.978)"/>
      <path id="path-8" data-name="path" class="cls-2" d="M85.049,305H55.005a3.756,3.756,0,0,0-3.755,3.755V338.8a3.756,3.756,0,0,0,3.755,3.755H85.049A3.756,3.756,0,0,0,88.8,338.8V308.755A3.756,3.756,0,0,0,85.049,305Zm-3.755,30.044H58.761V312.511H81.294Z" transform="translate(-14.978 -152.277)"/>
      <path id="path-9" data-name="path" class="cls-2" d="M210.726,445H145.005a3.755,3.755,0,0,0,0,7.511h65.721a3.755,3.755,0,0,0,0-7.511Z" transform="translate(-59.912 -222.175)"/>
      <path id="path-10" data-name="path" class="cls-2" d="M276.447,405H145.005a3.755,3.755,0,0,0,0,7.511H276.447a3.755,3.755,0,0,0,0-7.511Z" transform="translate(-59.912 -202.204)"/>
      <path id="path-11" data-name="path" class="cls-2" d="M85.049,395H55.005a3.756,3.756,0,0,0-3.755,3.755V428.8a3.756,3.756,0,0,0,3.755,3.755H85.049A3.756,3.756,0,0,0,88.8,428.8V398.755A3.756,3.756,0,0,0,85.049,395Zm-3.755,30.044H58.761V402.511H81.294Z" transform="translate(-14.978 -197.211)"/>
      <path id="path-12" data-name="path" class="cls-2" d="M55.005,222.555H85.049A3.756,3.756,0,0,0,88.8,218.8V188.755A3.756,3.756,0,0,0,85.049,185H55.005a3.756,3.756,0,0,0-3.755,3.755V218.8A3.756,3.756,0,0,0,55.005,222.555Zm3.755-30.044H81.294v22.533H58.761Z" transform="translate(-14.978 -92.365)"/>
    </g>
  </g>
</svg>
